<svg xmlns="http://www.w3.org/2000/svg" viewBox="0 0 512 512" role="img" aria-labelledby="title desc">
  <title id="title">KFEAN Shield Logo</title>
  <desc id="desc">Shield with a leaf icon and KFEAN lettering in amber over a deep forest background.</desc>
  <rect width="512" height="512" fill="#040b15" rx="48" />
  <g transform="translate(60 120)">
    <path d="M96 0c-1.6 0-3.2 0.4-4.6 1.1L23.2 36.2c-3.4 1.7-5.6 5.2-5.6 9v91.8c0 46 30.9 86.6 76.1 99L96 240l2.3-0.6c45.2-12.4 76.1-53 76.1-99V45.2c0-3.8-2.2-7.3-5.6-9L100.6 1.1C99.2 0.4 97.6 0 96 0z" fill="none" stroke="#d9862e" stroke-width="12" stroke-linejoin="round" />
    <path d="M96 46c-22 0-40 18-40 40 0 19.5 14 36.1 32.8 39.4V178c0 5 4 9 9.2 9s9.2-4 9.2-9v-52.6c18.8-3.3 32.8-19.9 32.8-39.4 0-22-18-40-40-40zm0 18c12.3 0 22.4 10 22.4 22.4 0 11.5-8.6 21-19.8 22.3a9.2 9.2 0 0 0-8 9.1V138h-9.2v-20.2c0-4.7-3.5-8.6-8-9.1-11.3-1.3-19.8-10.8-19.8-22.3C64 74 74 64 86.4 64z" fill="#d9862e" />
  </g>
  <text x="230" y="305" fill="#d9862e" font-family="'Outfit','Segoe UI',sans-serif" font-size="140" font-weight="700">KFEAN</text>
</svg>
